<svg xmlns="http://www.w3.org/2000/svg" viewBox="0 0 176.48 26"><defs><style>.cls-1{fill:#fff;}</style></defs><title>logo_1</title><g id="Layer_2" data-name="Layer 2"><g id="Layer_1-2" data-name="Layer 1"><path class="cls-1" d="M43,9.67a1.38,1.38,0,0,0,.71.19,1.4,1.4,0,0,0,.71-.19A1.35,1.35,0,0,0,45,9.14a1.44,1.44,0,0,0,.19-.72A1.47,1.47,0,0,0,45,7.69a1.31,1.31,0,0,0-.54-.53,1.39,1.39,0,0,0-.7-.19,1.43,1.43,0,0,0-.71.19,1.29,1.29,0,0,0-.53.53,1.47,1.47,0,0,0-.19.73,1.44,1.44,0,0,0,.19.72A1.29,1.29,0,0,0,43,9.67Zm-.33-1.86a1.12,1.12,0,0,1,.45-.44,1.16,1.16,0,0,1,.59-.16,1.13,1.13,0,0,1,.58.16,1.06,1.06,0,0,1,.45.44,1.24,1.24,0,0,1,.16.61,1.17,1.17,0,0,1-.16.6,1,1,0,0,1-.44.44,1.19,1.19,0,0,1-1.19,0A1.1,1.1,0,0,1,42.67,9a1.28,1.28,0,0,1-.16-.6A1.35,1.35,0,0,1,42.67,7.81Zm.66.75h.14a.28.28,0,0,1,.2,0,1.1,1.1,0,0,1,.26.36l.14.25h.3l-.18-.31A2.06,2.06,0,0,0,44,8.6a.41.41,0,0,0-.13-.08.5.5,0,0,0,.32-.14.41.41,0,0,0,.12-.3.44.44,0,0,0-.07-.22A.39.39,0,0,0,44,7.7a1.65,1.65,0,0,0-.39,0h-.53V9.22h.25Zm0-.69h.28a.69.69,0,0,1,.25,0A.23.23,0,0,1,44,8a.27.27,0,0,1,0,.12.23.23,0,0,1-.07.18.56.56,0,0,1-.3.06h-.3Zm6.42,5.58c-.41-.07-6.06-.76-6.06-.76S37.92,12,37.44,12s-2.37-.3-2.8-.45a1,1,0,0,1-.74-1,1.17,1.17,0,0,1,1.19-1.16h6V7.57H34.7a2.85,2.85,0,0,0-2.78,2.9,2.1,2.1,0,0,0,.74,1.93,4.42,4.42,0,0,0,1.8.86,10.82,10.82,0,0,0,1.41.25c3.58.46,5,.59,7.82.89,3.42.42,4.69.55,4.69.55.55.1,1,.17,1.39.27A2.94,2.94,0,0,1,52.2,18a3,3,0,0,1-3.07,2.82H32v1.74H49.35a4.56,4.56,0,0,0,.4-9.1ZM27.35,0V5.74h1.73V0Zm0,22.52h1.73v-15H27.35ZM24.23,8.91a2.4,2.4,0,0,0-.71-.86,2.52,2.52,0,0,0-1.27-.52,4.68,4.68,0,0,0-1,0c-1.11,0-1.81.91-2.74,2.43,0,0-4,7.11-5.26,9.14,0-3.5,0-5,0-9a2.45,2.45,0,0,0-.33-1.24,2.32,2.32,0,0,0-.72-.86,2.36,2.36,0,0,0-1.26-.51,4.1,4.1,0,0,0-1,0c-1.11,0-1.81.91-2.74,2.43L0,22.55H2.11L9.32,10c.53-.83.76-.81,1.09-.83a1.14,1.14,0,0,1,.68.18,1.05,1.05,0,0,1,.41.91V22.52h1.75L20.63,10c.53-.83.77-.81,1.09-.83a1.17,1.17,0,0,1,.69.18,1.07,1.07,0,0,1,.4.91V22.52h1.75c0-4.89,0-7.5,0-12.38A2.45,2.45,0,0,0,24.23,8.91ZM60.78,3.85V26h1V3.85Z"/><path class="cls-1" d="M84.74,11.12h-1.5c-.37-2.24-2-3.56-4.57-3.56-3.37,0-5.42,2.59-5.42,6.82s2,6.73,5.2,6.73c2.73,0,4.93-1.54,4.93-5.83h-4.6V14h6v8.19H83.42v-2.4h0a5.53,5.53,0,0,1-5.09,2.66c-4,0-6.55-3-6.55-8s2.64-8.17,6.93-8.17C82.12,6.21,84.48,8.15,84.74,11.12Z"/><path class="cls-1" d="M90.33,7.8v5.67h7.9v1.3h-7.9v6.1h8.58v1.3h-10V6.5h9.74V7.8Z"/><path class="cls-1" d="M106.91,6.5c3.7,0,5.37,1.56,5.37,4.18a3.83,3.83,0,0,1-3,3.94v0c1.16.35,1.65,1,2.33,2.93l1.65,4.58h-1.56l-1.5-4.36c-.68-2-1.45-2.55-3.19-2.55h-3.23v6.91h-1.43V6.5ZM103.75,14H107c2.66,0,3.83-1.41,3.81-3.26s-1.41-2.9-3.92-2.9h-3.14Z"/><path class="cls-1" d="M130.24,22.17v-8c0-2,0-4,0-6.07h0c-.81,2.07-1.58,4.07-2.37,6.12l-3.13,8H123l-3.1-8c-.79-2-1.59-4-2.38-6.12h0c0,2,0,4,0,6.07v8h-1.43V6.5h2.31l3.1,8,2.33,6.12h.05c.77-2,1.58-4.12,2.35-6.12l3.11-8h2.31V22.17Z"/><path class="cls-1" d="M137.08,17.11l-2,5.06h-1.54l6.2-15.67h2l6.18,15.67h-1.54l-2-5.06Zm6.2-2.95c-.86-2.23-1.65-4.25-2.51-6.49h0c-.86,2.24-1.63,4.26-2.51,6.49l-.64,1.62h6.32Z"/><path class="cls-1" d="M159.61,22.17l-4.08-7c-1.45-2.46-2.83-4.88-4.24-7.28h0c0,2.62,0,5.21,0,7.83v6.41h-1.43V6.5H152l4.07,7c1.46,2.47,2.84,4.89,4.25,7.29h0c0-2.62,0-5.22,0-7.84V6.5h1.43V22.17Z"/><path class="cls-1" d="M170.69,22.17h-1.45V15.48l-5.79-9h1.7l2.15,3.39c.88,1.38,1.76,2.79,2.64,4.2H170c.88-1.41,1.76-2.82,2.66-4.2l2.14-3.39h1.69l-5.79,9Z"/></g></g></svg>